<svg width="32" height="32" viewBox="0 0 32 32" fill="none" xmlns="http://www.w3.org/2000/svg">
  <rect width="32" height="32" rx="16" fill="#E6AE06"/>

  <path d="M11 11.5L12.5 9L14 10.5L15.5 8L17 10L18.5 8.5L20 10L21.5 11" 
        stroke="white" stroke-width="1.5" stroke-linecap="round" stroke-linejoin="round"/>

  <path d="M10 13H22" stroke="white" stroke-width="1.5" stroke-linecap="round"/>

  <path d="M11 13L10 20H22L21 13" stroke="white" stroke-width="1.5" stroke-linecap="round" stroke-linejoin="round"/>

  <path d="M12 20H20" stroke="white" stroke-width="1.5" stroke-linecap="round"/>

  <path d="M13 13V20M15 13V20M17 13V20M19 13V20" 
        stroke="white" stroke-width="1.3" stroke-linecap="round"/>

  <path d="M11.5 13C13 15.5 14.5 15 16 14.5C17.5 15 19 15.5 20.5 13" 
        stroke="white" stroke-width="1.5" stroke-linecap="round"/>
  <path d="M11.5 14.5C13 17 14.5 16.5 16 16C17.5 16.5 19 17 20.5 14.5" 
        stroke="white" stroke-width="1.5" stroke-linecap="round"/>
  <path d="M12.5 16C13.5 18 15 17.5 16 17C17 17.5 18.5 18 19.5 16" 
        stroke="white" stroke-width="1.5" stroke-linecap="round"/>
</svg>