<svg width="32" height="32" viewBox="0 0 32 32" fill="none" xmlns="http://www.w3.org/2000/svg">
<rect width="32" height="32" rx="16" fill="#4E5BA6"/>
<path d="M12.6667 14.6666L16 10.6666L19.3333 14.6666" stroke="white" stroke-width="1.5" stroke-linecap="round" stroke-linejoin="round"/>
<path d="M22 14.6666L20.6667 20C20.6047 20.382 20.4367 20.7246 20.1933 20.9686C19.9493 21.212 19.6453 21.3413 19.3333 21.3333H12.6667C12.3547 21.3413 12.0507 21.212 11.8067 20.9686C11.5633 20.7246 11.3953 20.382 11.3333 20L10 14.6666H22Z" stroke="white" stroke-width="1.5" stroke-linecap="round" stroke-linejoin="round"/>
<path d="M16 19.3333C16.3536 19.3333 16.6928 19.1928 16.9428 18.9428C17.1929 18.6927 17.3333 18.3536 17.3333 18C17.3333 17.6463 17.1929 17.3072 16.9428 17.0572C16.6928 16.8071 16.3536 16.6666 16 16.6666C15.6464 16.6666 15.3072 16.8071 15.0572 17.0572C14.8071 17.3072 14.6667 17.6463 14.6667 18C14.6667 18.3536 14.8071 18.6927 15.0572 18.9428C15.3072 19.1928 15.6464 19.3333 16 19.3333Z" stroke="white" stroke-width="1.5" stroke-linecap="round" stroke-linejoin="round"/>
</svg>
